<svg xmlns="http://www.w3.org/2000/svg" viewBox="0 0 200 200">
  <!-- Background -->
  <rect width="200" height="200" fill="none"/>
  
  <!-- Top left - plus sign - rounded on top left corner -->
  <path d="M30 5 h65 v90 h-90 v-65 a25 25 0 0 1 25 -25 z" fill="none" stroke="#fff" stroke-width="2"/>
  <!-- Plus sign with hidden connection -->
  <path d="M25 42 H42 V25 H58 V42 H75 V58 H58 V75 H42 V58 H25 V42 Z" fill="none" stroke="white" stroke-width="2"/>
  
  <!-- Top right - minus sign - rounded on top right corner -->
  <path d="M105 5 h65 a25 25 0 0 1 25 25 v65 h-90 v-90 z" fill="none" stroke="#fff" stroke-width="2"/>
  <!-- Minus sign as shape with fill -->
  <rect x="125" y="42" width="50" height="16" fill="none" stroke="white" stroke-width="2"/>
  
  <!-- Bottom left - multiply sign - rounded on bottom left corner -->
  <path d="M5 105 h90 v90 h-65 a25 25 0 0 1 -25 -25 v-65 z" fill="none" stroke="#fff" stroke-width="2"/>
  <!-- X as a rotated plus sign -->
  <g transform="translate(50, 150) rotate(45) translate(-50, -50)">
    <path d="M25 42 H42 V25 H58 V42 H75 V58 H58 V75 H42 V58 H25 V42 Z" fill="none" stroke="white" stroke-width="2"/>
  </g>
  
  <!-- Bottom right - equals sign - rounded on bottom right corner -->
  <path d="M105 105 h90 v65 a25 25 0 0 1 -25 25 h-65 v-90 z" fill="none" stroke="#fff" stroke-width="2"/>
  <!-- Equals sign as shapes with fill -->
  <rect x="125" y="130" width="50" height="16" fill="none" stroke="white" stroke-width="2"/>
  <rect x="125" y="154" width="50" height="16" fill="none" stroke="white" stroke-width="2"/>
</svg>