<svg xmlns="http://www.w3.org/2000/svg" viewBox="0 0 200 200">
  <!-- Background -->
  <rect width="200" height="200" fill="none"/>
  
  <!-- Top left - plus sign - rounded on top left corner -->
  <path d="M20 5 h75 v90 h-90 v-75 a15 15 0 0 1 15 -15 z" fill="none" stroke="#fff" stroke-width="2"/>
  <!-- Plus sign as filled shape with white outline -->
  <path d="M42.5 25 H57.5 V42.5 H75 V57.5 H57.5 V75 H42.5 V57.5 H25 V42.5 H42.5 V25 Z" fill="none" stroke="white" stroke-width="2"/>
  
  <!-- Top right - minus sign - rounded on top right corner -->
  <path d="M105 5 h75 a15 15 0 0 1 15 15 v75 h-90 v-90 z" fill="none" stroke="#fff" stroke-width="2"/>
  <!-- Minus sign as filled shape with white outline -->
  <rect x="130" y="42.5" width="40" height="15" fill="none" stroke="white" stroke-width="2"/>
  
  <!-- Bottom left - multiply sign - rounded on bottom left corner -->
  <path d="M5 105 h90 v90 h-75 a15 15 0 0 1 -15 -15 v-75 z" fill="none" stroke="#fff" stroke-width="2"/>
  <!-- X as a filled shape with white outline -->
  <path d="M35 130 L50 145 L65 130 L75 140 L60 155 L75 170 L65 180 L50 165 L35 180 L25 170 L40 155 L25 140 L35 130 Z" fill="none" stroke="white" stroke-width="2"/>
  
  <!-- Bottom right - equals sign - rounded on bottom right corner -->
  <path d="M105 105 h90 v75 a15 15 0 0 1 -15 15 h-75 v-90 z" fill="none" stroke="#fff" stroke-width="2"/>
  <!-- Equals sign as filled shapes with white outline -->
  <rect x="130" y="135" width="40" height="10" fill="none" stroke="white" stroke-width="2"/>
  <rect x="130" y="155" width="40" height="10" fill="none" stroke="white" stroke-width="2"/>
</svg>